#!OML:ASF E:\motion texture\Top Level 1\Subject 1\Session 1\male.ASF
:FULLY-SPECIFIED
:DEGREES
506
root 11.6693 17.815 6.30062 176.105 -87.2867 -171.271
lowerback -0.40456 -0.452702 1.63524
upperback -0.651284 -0.625094 2.29821
thorax -0.431657 -0.325883 1.43701
lowerneck -15.7577 -4.06836 -6.94956
upperneck 4.3994 -4.85744 8.38718
head 4.23827 -2.07275 3.32293
rclavicle 6.95746e-016 2.38542e-014
rhumerus -72.0803 -29.2255 -11.3897
rradius 15.3944
rwrist 26.3214
rhand 7.57711 -29.2724
rfingers 7.12502
rthumb 32.8248 -56.3094
lclavicle 6.95746e-016 2.38542e-014
lhumerus -62.2469 44.7821 33.6682
lradius 14.1351
lwrist -64.693
lhand -7.99506 27.3117
lfingers 7.12502
lthumb 17.9136 56.5067
rfemur -27.327 -4.07504 18.8828
rtibia 59.1594
rfoot 0.896974 -17.8712
rtoes 6.11519
lfemur -10.856 -4.59754 -20.7771
ltibia 18.4413
lfoot -9.57697 3.54671
ltoes 1.57125
507
root 11.5263 17.8174 6.30385 178.643 -87.4021 -173.814
lowerback -0.335646 -0.527851 1.5314
upperback -0.59006 -0.724441 2.3271
thorax -0.40464 -0.374836 1.52512
lowerneck -15.815 -4.03334 -6.91593
upperneck 4.17414 -4.80104 8.34569
head 4.17149 -2.04924 3.30948
rclavicle 6.16232e-015 -2.22639e-014
rhumerus -72.7019 -28.7518 -10.3431
rradius 15.4314
rwrist 26.1776
rhand 7.63765 -29.2604
rfingers 7.12502
rthumb 32.8824 -56.2853
lclavicle 6.16232e-015 -2.22639e-014
lhumerus -62.5001 44.4937 33.2986
lradius 14.1485
lwrist -64.3507
lhand -7.94918 27.2322
lfingers 7.12502
lthumb 17.9577 56.4232
rfemur -28.128 -4.30911 18.7631
rtibia 58.4229
rfoot 0.350792 -18.1705
rtoes 6.50663
lfemur -10.1731 -4.65158 -21.0327
ltibia 18.1814
lfoot -9.89722 3.48515
ltoes 1.49074
508
root 11.3844 17.8187 6.30601 181.262 -87.5228 -176.427
lowerback -0.270123 -0.60112 1.43139
upperback -0.531806 -0.821515 2.35789
thorax -0.378381 -0.422803 1.61312
lowerneck -15.868 -4.00063 -6.88701
upperneck 3.94032 -4.74756 8.30903
head 4.10195 -2.02728 3.29812
rclavicle -6.11263e-015 -7.95139e-016
rhumerus -73.2897 -28.3286 -9.381
rradius 15.4697
rwrist 25.9911
rhand 7.70731 -29.2427
rfingers 7.12502
rthumb 32.9487 -56.2537
lclavicle -6.11263e-015 -7.95139e-016
lhumerus -62.5517 44.1372 33.211
lradius 14.1846
lwrist -63.8662
lhand -7.9279 27.146
lfingers 7.12502
lthumb 17.9782 56.3351
rfemur -28.8869 -4.53511 18.6534
rtibia 57.5389
rfoot -0.211256 -18.4357
rtoes 6.88628
lfemur -9.50757 -4.69808 -21.271
ltibia 17.924
lfoot -10.2143 3.40958
ltoes 1.38539
509
root 11.2436 17.819 6.30712 183.994 -87.6488 -179.145
lowerback -0.207983 -0.672408 1.33536
upperback -0.476833 -0.916149 2.3904
thorax -0.353231 -0.469691 1.70072
lowerneck -15.9177 -3.97117 -6.86171
upperneck 3.70046 -4.69829 8.27462
head 4.03055 -2.00755 3.28775
rclavicle 1.55549e-014 2.22639e-014
rhumerus -73.8494 -27.9608 -8.49663
rradius 15.5094
rwrist 25.7695
rhand 7.78788 -29.2249
rfingers 7.12502
rthumb 33.0253 -56.2198
lclavicle 1.55549e-014 2.22639e-014
lhumerus -62.4531 43.7493 33.3304
lradius 14.2355
lwrist -63.2992
lhand -7.93552 27.0515
lfingers 7.12502
lthumb 17.9709 56.2412
rfemur -29.6031 -4.753 18.5521
rtibia 56.5131
rfoot -0.776211 -18.6622
rtoes 7.2073
lfemur -8.86016 -4.73759 -21.4917
ltibia 17.6717
lfoot -10.5275 3.32093
ltoes 1.25944
510
root 11.1036 17.8183 6.30721 186.915 -87.7797 -182.042
lowerback -0.149545 -0.741236 1.24344
upperback -0.425888 -1.00766 2.42353
thorax -0.32984 -0.51514 1.78674
lowerneck -15.9605 -3.94454 -6.84058
upperneck 3.45196 -4.65277 8.24419
head 3.95598 -1.98986 3.27908
rclavicle 3.67752e-015 -1.66979e-014
rhumerus -74.3942 -27.6567 -7.66837
rradius 15.5472
rwrist 25.5352
rhand 7.87591 -29.2033
rfingers 7.12502
rthumb 33.109 -56.1804
lclavicle 3.67752e-015 -1.66979e-014
lhumerus -62.2117 43.3304 33.6479
lradius 14.3019
lwrist -62.6461
lhand -7.9654 26.9568
lfingers 7.12502
lthumb 17.9421 56.1492
rfemur -30.2768 -4.96219 18.4564
rtibia 55.3553
rfoot -1.34313 -18.8473
rtoes 7.46667
lfemur -8.23222 -4.7697 -21.6959
ltibia 17.4265
lfoot -10.8372 3.2186
ltoes 1.11115
511
root 10.9646 17.8164 6.3063 190.103 -87.9152 -185.196
lowerback -0.0948858 -0.808031 1.15452
upperback -0.378518 -1.09662 2.45764
thorax -0.307694 -0.559417 1.87211
lowerneck -15.9996 -3.92122 -6.82407
upperneck 3.19754 -4.61137 8.21663
head 3.87957 -1.97434 3.27177
rclavicle -5.26779e-015 -3.18055e-015
rhumerus -74.9293 -27.4249 -6.88129
rradius 15.5809
rwrist 25.3038
rhand 7.97201 -29.1753
rfingers 7.12502
rthumb 33.2004 -56.133
lclavicle -5.26779e-015 -3.18055e-015
lhumerus -61.859 42.8993 34.1193
lradius 14.3801
lwrist -61.9338
lhand -8.01663 26.8688
lfingers 7.12502
lthumb 17.8928 56.0657
rfemur -30.9087 -5.16272 18.3643
rtibia 54.0764
rfoot -1.89134 -18.9879
rtoes 7.69386
lfemur -7.62375 -4.79474 -21.8841
ltibia 17.1897
lfoot -11.1416 3.10079
ltoes 0.948184
512
root 10.8264 17.8136 6.3044 193.712 -88.0574 -188.763
lowerback -0.0463697 -0.872623 1.06857
upperback -0.328893 -1.18295 2.49049
thorax -0.279571 -0.602469 1.95446
lowerneck -16.0567 -3.90324 -6.80961
upperneck 2.94434 -4.57663 8.19213
head 3.80703 -1.96172 3.26501
rclavicle 4.22417e-015 -6.36111e-015
rhumerus -75.4588 -27.2767 -6.13796
rradius 15.6112
rwrist 25.0725
rhand 8.07282 -29.1467
rfingers 7.12502
rthumb 33.2963 -56.0839
lclavicle 4.22417e-015 -6.36111e-015
lhumerus -61.4123 42.4869 34.7024
lradius 14.4633
lwrist -61.1997
lhand -8.09147 26.785
lfingers 7.12502
lthumb 17.8208 55.9884
rfemur -31.4979 -5.35789 18.2723
rtibia 52.6882
rfoot -2.39921 -19.0865
rtoes 7.89811
lfemur -7.03649 -4.81469 -22.0581
ltibia 16.9664
lfoot -11.4414 2.96551
ltoes 0.772337
513
root 10.689 17.8096 6.30156 197.866 -88.1969 -192.866
lowerback 0.00201899 -0.934578 0.982442
upperback -0.291602 -1.26556 2.52411
thorax -0.263734 -0.643715 2.0379
lowerneck -16.0831 -3.88721 -6.80297
upperneck 2.67996 -4.54452 8.17016
head 3.72679 -1.95114 3.26046
rclavicle -7.85199e-015 1.82882e-014
rhumerus -75.9935 -27.1979 -5.40171
rradius 15.6326
rwrist 24.8783
rhand 8.18543 -29.1036
rfingers 7.12502
rthumb 33.4033 -56.0178
lclavicle -7.85199e-015 1.82882e-014
lhumerus -60.9136 42.0785 35.3615
lradius 14.5505
lwrist -60.4557
lhand -8.19199 26.7088
lfingers 7.12502
lthumb 17.7241 55.921
rfemur -32.0502 -5.53948 18.1787
rtibia 51.208
rfoot -2.85263 -19.1465
rtoes 8.05574
lfemur -6.47054 -4.82656 -22.2196
ltibia 16.7545
lfoot -11.7345 2.81771
ltoes 0.575183
514
root 10.5522 17.8047 6.29778 202.772 -88.3332 -197.713
lowerback 0.0462591 -0.993465 0.896738
upperback -0.258043 -1.34413 2.55574
thorax -0.249229 -0.682979 2.11908
lowerneck -16.1043 -3.87533 -6.80068
upperneck 2.41058 -4.51781 8.15121
head 3.64484 -1.94334 3.2572
rclavicle 6.95746e-016 7.95139e-016
rhumerus -76.5375 -27.2045 -4.67256
rradius 15.6457
rwrist 24.7211
rhand 8.30929 -29.0524
rfingers 7.12502
rthumb 33.521 -55.9412
lclavicle 6.95746e-016 7.95139e-016
lhumerus -60.3701 41.706 36.0637
lradius 14.6347
lwrist -59.7354
lhand -8.31691 26.6411
lfingers 7.12502
lthumb 17.6039 55.8641
rfemur -32.5625 -5.70889 18.0802
rtibia 49.6503
rfoot -3.25129 -19.1692
rtoes 8.17542
lfemur -5.92398 -4.83286 -22.3703
ltibia 16.5562
lfoot -12.0219 2.65575
ltoes 0.370818
515
root 10.416 17.7987 6.29305 208.66 -88.4625 -203.535
lowerback 0.087697 -1.04966 0.810606
upperback -0.229331 -1.41909 2.58492
thorax -0.237964 -0.720445 2.19802
lowerneck -16.1199 -3.86767 -6.80362
upperneck 2.13794 -4.49651 8.13609
head 3.56175 -1.93828 3.25562
rclavicle 1.2424e-014 1.59028e-015
rhumerus -77.0951 -27.2982 -3.94112
rradius 15.6489
rwrist 24.6138
rhand 8.44553 -28.9895
rfingers 7.12502
rthumb 33.6505 -55.8501
lclavicle 1.2424e-014 1.59028e-015
lhumerus -59.7879 41.3711 36.7984
lradius 14.7138
lwrist -59.0453
lhand -8.46352 26.5808
lfingers 7.12502
lthumb 17.4628 55.8164
rfemur -33.0357 -5.86541 17.9747
rtibia 48.0325
rfoot -3.59299 -19.1563
rtoes 8.26164
lfemur -5.39773 -4.83424 -22.5113
ltibia 16.3745
lfoot -12.3041 2.47917
ltoes 0.152664
516
root 10.2804 17.7918 6.28739 215.742 -88.5778 -210.542
lowerback 0.123545 -1.10279 0.72311
upperback -0.204789 -1.49001 2.61153
thorax -0.227707 -0.755892 2.27508
lowerneck -16.1306 -3.86408 -6.81217
upperneck 1.86219 -4.48023 8.12386
head 3.47756 -1.93579 3.25555
rclavicle 8.64713e-015 1.98785e-014
rhumerus -77.6669 -27.48 -3.20642
rradius 15.6427
rwrist 24.5585
rhand 8.59695 -28.9152
rfingers 7.12502
rthumb 33.7944 -55.7443
lclavicle 8.64713e-015 1.98785e-014
lhumerus -59.1754 41.0826 37.5498
lradius 14.7848
lwrist -58.4022
lhand -8.62861 26.5242
lfingers 7.12502
lthumb 17.3039 55.7738
rfemur -33.4726 -6.00724 17.8606
rtibia 46.3731
rfoot -3.88153 -19.1103
rtoes 8.30653
lfemur -4.89346 -4.83045 -22.6439
ltibia 16.2111
lfoot -12.58 2.28997
ltoes -0.0803049
